<?xml version="1.0" standalone="no"?>
<!DOCTYPE svg PUBLIC "-//W3C//DTD SVG 20010904//EN"
 "http://www.w3.org/TR/2001/REC-SVG-20010904/DTD/svg10.dtd">
<svg version="1.0" xmlns="http://www.w3.org/2000/svg"
 width="700.000000pt" height="700.000000pt" viewBox="0 0 700.000000 700.000000"
 preserveAspectRatio="xMidYMid meet">
<metadata>
Created by potrace 1.11, written by Peter Selinger 2001-2013
</metadata>
<g transform="translate(0.000000,700.000000) scale(0.100000,-0.100000)"
fill="#000000" stroke="none">
<path d="M3329 5676 c-2 -2 -37 -7 -77 -10 -40 -4 -78 -9 -85 -11 -7 -2 -31
-6 -53 -9 -129 -16 -392 -100 -550 -177 -109 -52 -227 -119 -232 -131 -2 -5
-8 -8 -13 -8 -12 0 -141 -92 -214 -153 -163 -136 -367 -373 -474 -552 -128
-213 -246 -529 -276 -735 -4 -24 -8 -47 -10 -50 -17 -28 -27 -465 -13 -581 31
-253 100 -489 206 -709 262 -542 752 -960 1327 -1135 115 -35 272 -68 385 -82
85 -10 405 -10 499 0 381 41 780 206 1098 453 78 61 244 219 308 294 146 171
279 388 359 590 21 52 44 111 52 130 17 43 70 249 79 310 4 25 9 54 11 65 19
98 26 451 12 566 -25 203 -88 448 -153 594 -81 184 -156 317 -257 453 -92 124
-106 140 -229 263 -223 222 -511 403 -799 504 -109 38 -309 88 -395 100 -27 4
-61 9 -75 11 -32 6 -426 15 -431 10z"/>
</g>
</svg>
