<svg height="17px" width="18px" version="1.1" viewBox="0 0 18 17"><defs></defs><g id="Good-One" fill="none" stroke="none" stroke-width="1"><g id="Footer_06" fill="#9EA0A6" transform="translate(-1238.000000, -3947.000000)"><g id="Group-7" transform="translate(0.000000, 3204.000000)"><g id="Group-6" transform="translate(75.000000, 733.000000)"><g id="dribbble" transform="translate(976.000000, 9.000000)"><path id="Shape" d="M195.711029,1 C190.900061,1 187,4.90006063 187,9.71102924 C187,13.5613042 189.500065,16.8279401 192.958344,17.986507 C193.393895,18.0561953 193.533272,17.7861533 193.533272,17.5509556 C193.533272,17.3506019 193.533272,16.801807 193.533272,16.0787916 C191.120317,16.6014534 190.606366,14.9115137 190.606366,14.9115137 C190.205659,13.9010343 189.639442,13.6309924 189.639442,13.6309924 C188.846738,13.0909086 189.700419,13.1083306 189.700419,13.1083306 C190.571522,13.1693078 191.033207,14.0055667 191.033207,14.0055667 C191.791066,15.3296431 193.071587,14.9376468 193.568116,14.7285821 C193.646515,14.1623652 193.873002,13.7790799 194.116911,13.5613042 C192.183062,13.3435284 190.153393,12.5943799 190.153393,9.27547778 C190.153393,8.30855353 190.484412,7.53327193 191.050629,6.91478885 C190.963518,6.69701312 190.658632,5.79106608 191.137739,4.61507713 C191.137739,4.61507713 191.869465,4.37987934 193.533272,5.50360212 C194.221443,5.31195947 194.970592,5.21613815 195.711029,5.21613815 C196.451467,5.21613815 197.200615,5.31195947 197.888787,5.50360212 C199.552593,4.37987934 200.28432,4.61507713 200.28432,4.61507713 C200.763426,5.79106608 200.45854,6.69701312 200.37143,6.91478885 C200.937647,7.53327193 201.268666,8.30855353 201.268666,9.27547778 C201.268666,12.6030909 199.230285,13.3348174 197.287726,13.5525931 C197.601323,13.822635 197.888787,14.3540078 197.888787,15.1641335 C197.888787,16.3314115 197.888787,17.2722026 197.888787,17.5509556 C197.888787,17.7861533 198.028163,18.0649063 198.472426,17.986507 C201.930704,16.8192291 204.422058,13.5613042 204.422058,9.71102924 C204.422058,7.40072064 203.504292,5.18503627 201.870657,3.55140139 C200.237022,1.91776652 198.021338,1 195.711029,1 Z"></path></g></g></g></g></g></svg>
